<?xml version="1.0" ?><!DOCTYPE svg  PUBLIC '-//W3C//DTD SVG 1.1//EN'  'http://www.w3.org/Graphics/SVG/1.1/DTD/svg11.dtd'><svg enable-background="new 0 0 1000 1000" height="1000px" id="Layer_1" version="1.1" viewBox="0 0 1000 1000" width="1000px" xml:space="preserve" xmlns="http://www.w3.org/2000/svg" xmlns:xlink="http://www.w3.org/1999/xlink"><g><path d="M507.878,328.905c-26.825-9.5-71.686,0.334-137.136,30.061c-29.533,13.413-55.995,27.644-71.644,36.403   c-6.026-7.021-14.955-11.481-24.911-11.481h-4.449c-18.103,0-32.83,14.728-32.83,32.83v4.868v156.829v4.867   c0,18.104,14.728,32.831,32.83,32.831h4.449c9.957,0,18.885-4.461,24.911-11.481c15.649,8.759,42.11,22.989,71.644,36.403   c49.427,22.449,87.11,33.553,114.153,33.553c8.767,0,16.415-1.167,22.982-3.492c12.354-4.374,21.178-12.91,25.516-24.686   c0.611-1.66,0.925-3.416,0.925-5.186v-124.91v-32.628v-124.91c0-1.77-0.313-3.525-0.925-5.186   C529.056,341.815,520.232,333.279,507.878,328.905z M274.188,581.247h-4.449c-1.561,0-2.83-1.271-2.83-2.832V421.586   c0-1.561,1.27-2.831,2.83-2.831h4.449c1.562,0,2.832,1.271,2.832,2.831v156.829C277.02,579.977,275.749,581.247,274.188,581.247z    M504.318,638.039c-1.058,1.795-2.844,3.498-6.451,4.776c-8.543,3.024-36.807,6.259-114.487-28.99   c-33.179-15.056-63.051-31.595-76.36-39.188V425.363c13.31-7.594,43.182-24.133,76.36-39.188   c77.68-35.25,105.942-32.016,114.487-28.989c3.607,1.278,5.394,2.98,6.451,4.776v121.725v32.628V638.039z"/><path d="M722.187,649.449l1.344,0.612c1.976,0.9,4.098,1.351,6.22,1.351c2.158,0,4.316-0.466,6.318-1.396   c3.973-1.846,6.94-5.335,8.124-9.552c12.542-44.696,18.901-91.137,18.901-138.03c0-46.896-6.36-93.337-18.903-138.031   c-1.185-4.219-4.153-7.709-8.128-9.554c-3.976-1.845-8.558-1.86-12.543-0.039l-1.346,0.614c-6.732,3.073-10.218,10.597-8.208,17.72   c11.829,41.916,17.827,85.416,17.827,129.29c0,43.867-5.997,87.367-17.823,129.293C711.96,638.854,715.449,646.38,722.187,649.449z   "/><path d="M650.525,388.09l-1.332,0.605c-6.591,2.995-10.101,10.271-8.345,17.294c7.863,31.45,11.851,63.899,11.851,96.445   c0,32.545-3.987,64.993-11.851,96.443c-1.754,7.014,1.744,14.279,8.32,17.283l1.332,0.608c1.979,0.904,4.106,1.355,6.231,1.355   c2.229,0,4.458-0.497,6.515-1.488c4.018-1.938,6.965-5.562,8.042-9.891C679.724,572.843,684,537.748,684,502.435   c0-35.314-4.276-70.41-12.711-104.311c-1.076-4.324-4.019-7.946-8.03-9.885C659.248,386.301,654.58,386.244,650.525,388.09z"/><path d="M576.51,583.034l1.191,0.543c1.979,0.901,4.101,1.351,6.221,1.351c2.334,0,4.667-0.545,6.801-1.63   c4.071-2.071,6.978-5.885,7.895-10.36c4.725-23.07,7.121-46.79,7.121-70.499c0-23.71-2.396-47.433-7.121-70.507   c-0.917-4.476-3.822-8.289-7.894-10.36c-4.073-2.071-8.865-2.175-13.022-0.28l-1.191,0.543c-6.358,2.897-9.873,9.802-8.477,16.648   c4.271,20.926,6.436,42.444,6.436,63.956c0,21.509-2.165,43.023-6.436,63.947C566.636,573.231,570.151,580.136,576.51,583.034z"/><path d="M857.063,603.035h-1.139c-6.451,0-12.18,4.125-14.226,10.242c-48.952,146.375-185.44,244.721-339.632,244.721   c-197.4,0-357.998-160.598-357.998-357.998s160.598-357.998,357.998-357.998c49.126,0,96.768,9.834,141.601,29.229   c7.165,3.101,15.508,0.187,19.186-6.697l0.525-0.983c1.977-3.698,2.314-8.056,0.932-12.016c-1.383-3.959-4.36-7.159-8.21-8.822   l-0.896-0.391c-0.57-0.25-1.141-0.499-1.718-0.744c-47.968-20.288-98.912-30.575-151.42-30.575s-103.452,10.287-151.419,30.575   c-46.323,19.593-87.924,47.639-123.645,83.36c-35.719,35.72-63.765,77.318-83.359,123.643   c-20.288,47.968-30.575,98.912-30.575,151.42c0,52.506,10.287,103.451,30.576,151.421c19.594,46.323,47.64,87.922,83.358,123.642   c35.721,35.722,77.321,63.768,123.644,83.36c47.968,20.288,98.912,30.575,151.42,30.575s103.452-10.287,151.419-30.575   c46.323-19.593,87.924-47.639,123.645-83.36c35.72-35.718,63.766-77.317,83.361-123.644c3.957-9.358,7.592-18.997,10.804-28.647   c1.522-4.573,0.754-9.6-2.065-13.51C866.409,605.352,861.883,603.035,857.063,603.035z"/><path d="M683.189,191.319c17.844,10.515,34.887,22.656,50.657,36.087c2.807,2.391,6.268,3.58,9.725,3.58   c3.62,0,7.237-1.306,10.094-3.903l0.885-0.805c3.187-2.898,4.974-7.027,4.905-11.335s-1.985-8.378-5.263-11.174   c-17.207-14.679-35.79-27.914-55.233-39.34c-3.518-2.066-7.725-2.611-11.652-1.51c-3.929,1.103-7.237,3.758-9.166,7.353   l-0.555,1.034C673.781,178.4,676.254,187.233,683.189,191.319z"/><path d="M886.769,441.849c-4.787-31.983-13.628-63.364-26.278-93.27c-13.44-31.774-31.014-61.574-52.231-88.574   c-2.573-3.273-6.391-5.331-10.54-5.679c-4.145-0.348-8.257,1.044-11.339,3.844l-0.895,0.813   c-5.823,5.289-6.571,14.178-1.714,20.366c38.12,48.559,63.112,106.293,72.275,166.961c1.108,7.336,7.413,12.76,14.832,12.76h1.055   c4.366,0,8.515-1.902,11.364-5.21S887.415,446.167,886.769,441.849z"/></g></svg>