<?xml version="1.0" ?><svg viewBox="0 0 64 64" xmlns="http://www.w3.org/2000/svg"><g id="Glyph"><g data-name="Glyph" id="Glyph-2"><path d="M25,56H21a1,1,0,0,0,0,2h4a1,1,0,0,0,0-2Z"/><circle cx="29" cy="57" r="1"/><circle cx="32" cy="6" r="1"/><path d="M49,18V12a1,1,0,0,0-1-1V6.11A4.11,4.11,0,0,0,43.89,2H20.11A4.11,4.11,0,0,0,16,6.11V57.89A4.11,4.11,0,0,0,20.11,62H43.89A4.11,4.11,0,0,0,48,57.89V28a1,1,0,0,0,1-1V24a1,1,0,0,0-1-1V19A1,1,0,0,0,49,18ZM46,57.89A2.1,2.1,0,0,1,43.89,60H20.11A2.1,2.1,0,0,1,18,57.89V6.11A2.1,2.1,0,0,1,20.11,4H43.89A2.1,2.1,0,0,1,46,6.11Z"/><path d="M44,32v8a2,2,0,0,1-2,2H41v.24A1.73,1.73,0,0,1,39.28,44H37.23a1.73,1.73,0,0,1-1.68-1.76v-8a1.73,1.73,0,0,1,1.68-1.76h2.05A1.71,1.71,0,0,1,40.94,34H42V32a10,10,0,0,0-2.26-6.33l-1.38,1.39a1,1,0,0,1-1.42,0,7,7,0,0,0-9.88,0,1,1,0,0,1-1.42,0l-1.38-1.39A10,10,0,0,0,22,32v2h1.06a1.71,1.71,0,0,1,1.66-1.48h2.05a1.73,1.73,0,0,1,1.68,1.76v8A1.73,1.73,0,0,1,26.77,44H24.72A1.73,1.73,0,0,1,23,42.24V42H22a2,2,0,0,1-2-2V32a11.93,11.93,0,0,1,3.49-8.45s0,0,0,0a12,12,0,0,1,17,0s0,0,0,0A11.93,11.93,0,0,1,44,32Z"/></g></g></svg>